<svg xmlns="http://www.w3.org/2000/svg" viewBox="0 0 886.52 886.52"><path class="cls-1" d="M443.26,886.52c-59.82,0-117.87-11.73-172.55-34.85-52.79-22.33-100.19-54.28-140.88-94.97-40.69-40.69-72.65-88.09-94.97-140.88C11.73,561.13,0,503.08,0,443.26s11.73-117.87,34.85-172.55c22.33-52.79,54.28-100.19,94.97-140.88,40.69-40.69,88.09-72.65,140.88-94.97C325.39,11.73,383.44,0,443.26,0s117.87,11.73,172.55,34.85c52.79,22.33,100.19,54.28,140.88,94.97,40.69,40.69,72.65,88.09,94.97,140.88,23.13,54.68,34.85,112.73,34.85,172.55s-11.73,117.87-34.85,172.55c-22.33,52.79-54.28,100.19-94.97,140.88s-88.09,72.65-140.88,94.97c-54.68,23.13-112.73,34.85-172.55,34.85ZM493.26,103.63v679.26c165.66-24.28,293.26-167.34,293.26-339.63S658.92,127.91,493.26,103.63ZM393.26,103.63C227.6,127.91,100,270.97,100,443.26s127.6,315.34,293.26,339.63V103.63Z"/></svg>
