<svg xmlns="http://www.w3.org/2000/svg" viewBox="0 0 886.52 886.52"><path class="cls-1" d="M851.66,270.71c-22.33-52.79-54.28-100.19-94.97-140.88-40.69-40.69-88.09-72.65-140.88-94.97C561.13,11.73,503.08,0,443.26,0s-117.87,11.73-172.55,34.85c-52.79,22.33-100.19,54.28-140.88,94.97-40.69,40.69-72.65,88.09-94.97,140.88C11.73,325.39,0,383.44,0,443.26s11.73,117.87,34.85,172.55c22.33,52.79,54.28,100.19,94.97,140.88,40.69,40.69,88.09,72.65,140.88,94.97,54.68,23.13,112.73,34.85,172.55,34.85s117.87-11.73,172.55-34.85c52.79-22.33,100.19-54.28,140.88-94.97,40.69-40.69,72.65-88.09,94.97-140.88,23.13-54.68,34.85-112.73,34.85-172.55s-11.73-117.87-34.85-172.55ZM443.26,100c76.63,0,147.48,25.25,204.67,67.86l-204.67,204.67-204.67-204.67c57.19-42.61,128.03-67.86,204.67-67.86ZM100,443.26c0-76.65,25.26-147.5,67.88-204.69l204.67,204.67-204.69,204.69c-42.61-57.19-67.86-128.03-67.86-204.67ZM443.26,786.52c-76.65,0-147.5-25.26-204.69-67.88l204.69-204.69,204.69,204.69c-57.19,42.62-128.05,67.88-204.69,67.88ZM718.66,647.92l-204.69-204.69,204.67-204.67c42.62,57.19,67.88,128.05,67.88,204.69s-25.25,147.48-67.86,204.67Z"/></svg>
