<svg xmlns="http://www.w3.org/2000/svg" xmlns:xlink="http://www.w3.org/1999/xlink" x="0px" y="0px" viewBox="0 0 886.5 886.5" style="enable-background:new 0 0 886.5 886.5;" xml:space="preserve"><g><path class="st0" d="M851.7,270.7c-22.3-52.8-54.3-100.2-95-140.9c-40.7-40.7-88.1-72.6-140.9-95C561.1,11.7,503.1,0,443.3,0S325.4,11.7,270.7,34.9c-52.8,22.3-100.2,54.3-140.9,95s-72.6,88.1-95,140.9C11.7,325.4,0,383.4,0,443.3s11.7,117.9,34.9,172.6c22.3,52.8,54.3,100.2,95,140.9c40.7,40.7,88.1,72.6,140.9,95c54.7,23.1,112.7,34.9,172.6,34.9s117.9-11.7,172.6-34.9c52.8-22.3,100.2-54.3,140.9-95c40.7-40.7,72.6-88.1,95-140.9c23.1-54.7,34.9-112.7,34.9-172.6S874.8,325.4,851.7,270.7zM443.3,786.5C254,786.5,100,632.5,100,443.3C100,254,254,100,443.3,100c189.3,0,343.3,154,343.3,343.3C786.5,632.5,632.5,786.5,443.3,786.5z"/><path class="st0" d="M443.3,188.9c-67.9,0-131.8,26.5-179.9,74.5c-48,48-74.5,111.9-74.5,179.9s26.5,131.8,74.5,179.9c48,48,111.9,74.5,179.9,74.5s131.8-26.5,179.9-74.5c48-48,74.5-111.9,74.5-179.9s-26.5-131.8-74.5-179.9C575.1,215.4,511.2,188.9,443.3,188.9z"/></g></svg>
