<svg  xmlns="http://www.w3.org/2000/svg" xmlns:xlink="http://www.w3.org/1999/xlink" x="0px" y="0px" viewBox="0 0 886.5 886.5" style="enable-background:new 0 0 886.5 886.5;" xml:space="preserve"><path class="st0" d="M443.3,886.5c-59.8,0-117.9-11.7-172.6-34.9c-52.8-22.3-100.2-54.3-140.9-95c-40.7-40.7-72.6-88.1-95-140.9C11.7,561.1,0,503.1,0,443.3s11.7-117.9,34.9-172.6c22.3-52.8,54.3-100.2,95-140.9c40.7-40.7,88.1-72.6,140.9-95C325.4,11.7,383.4,0,443.3,0s117.9,11.7,172.6,34.9c52.8,22.3,100.2,54.3,140.9,95c40.7,40.7,72.6,88.1,95,140.9c23.1,54.7,34.9,112.7,34.9,172.6s-11.7,117.9-34.9,172.6c-22.3,52.8-54.3,100.2-95,140.9s-88.1,72.6-140.9,95C561.1,874.8,503.1,886.5,443.3,886.5z M443.3,100C254,100,100,254,100,443.3c0,189.3,154,343.3,343.3,343.3c189.3,0,343.3-154,343.3-343.3C786.5,254,632.5,100,443.3,100z M443.3,691c-66.2,0-128.4-25.8-175.2-72.6c-46.8-46.8-72.6-109-72.6-175.2c0-66.2,25.8-128.4,72.6-175.2c46.8-46.8,109-72.6,175.2-72.6c66.2,0,128.4,25.8,175.2,72.6c46.8,46.8,72.6,109,72.6,175.2s-25.8,128.4-72.6,175.2S509.4,691,443.3,691z M443.3,295.5c-81.5,0-147.8,66.3-147.8,147.8c0,81.5,66.3,147.8,147.8,147.8S591,524.7,591,443.2C591,361.7,524.7,295.5,443.3,295.5z"/></svg>
