<svg xmlns="http://www.w3.org/2000/svg" xmlns:xlink="http://www.w3.org/1999/xlink" x="0px" y="0px" viewBox="0 0 886.5 886.5" style="enable-background:new 0 0 886.5 886.5;" xml:space="preserve"><g><path class="st0" d="M851.7,270.7c-22.3-52.8-54.3-100.2-95-140.9c-40.7-40.7-88.1-72.6-140.9-95C561.1,11.7,503.1,0,443.3,0S325.4,11.7,270.7,34.9c-52.8,22.3-100.2,54.3-140.9,95s-72.6,88.1-95,140.9C11.7,325.4,0,383.4,0,443.3s11.7,117.9,34.9,172.6c22.3,52.8,54.3,100.2,95,140.9c40.7,40.7,88.1,72.6,140.9,95c54.7,23.1,112.7,34.9,172.6,34.9s117.9-11.7,172.6-34.9c52.8-22.3,100.2-54.3,140.9-95c40.7-40.7,72.6-88.1,95-140.9c23.1-54.7,34.9-112.7,34.9-172.6S874.8,325.4,851.7,270.7zM443.3,786.5C254,786.5,100,632.5,100,443.3C100,254,254,100,443.3,100c189.3,0,343.3,154,343.3,343.3C786.5,632.5,632.5,786.5,443.3,786.5z"/><path class="st0" d="M635.6,387.5l30.7,30.7H443.3v0c-70.5,0-127.8-57.3-127.8-127.8s57.3-127.8,127.8-127.8S571.1,220,571.1,290.4h50c0-98-79.8-177.8-177.8-177.8c-98,0-177.8,79.8-177.8,177.8c0,50.1,20.9,95.5,54.3,127.8H157.6v50h285.6c70.5,0,127.8,57.3,127.8,127.8s-57.3,127.8-127.8,127.8c-70.5,0-127.8-57.3-127.8-127.8h-50c0,98,79.8,177.8,177.8,177.8S621,694.1,621,596c0-1.9,0-3.7-0.1-5.6c-0.1-2.7-0.2-5.4-0.4-8.1c0-0.4-0.1-0.9-0.1-1.3c-0.1-1.1-0.2-2.1-0.3-3.2c0-0.1,0-0.1,0-0.2c-4.4-42.8-24-81.1-53.4-109.5h99.6L635.6,499l35.4,35.4l91.1-91.1L671,352.2L635.6,387.5z"/></g></svg>
