<svg xmlns="http://www.w3.org/2000/svg" viewBox="0 0 886.52 886.52"><path class="cls-1" d="M851.67,270.71c-22.33-52.79-54.28-100.19-94.97-140.88-40.69-40.69-88.09-72.65-140.88-94.97C561.13,11.73,503.08,0,443.26,0s-117.87,11.73-172.55,34.85c-52.79,22.33-100.19,54.28-140.88,94.97s-72.65,88.09-94.97,140.88C11.73,325.39,0,383.44,0,443.26s11.73,117.87,34.85,172.55c22.33,52.79,54.28,100.19,94.97,140.88,40.69,40.69,88.09,72.65,140.88,94.97,54.68,23.13,112.73,34.85,172.55,34.85s117.87-11.73,172.55-34.85c52.79-22.33,100.19-54.28,140.88-94.97,40.69-40.69,72.65-88.09,94.97-140.88,23.13-54.68,34.85-112.73,34.85-172.55s-11.73-117.87-34.85-172.55ZM443.26,786.52c-189.27,0-343.26-153.99-343.26-343.26S253.99,100,443.26,100s343.26,153.99,343.26,343.26-153.99,343.26-343.26,343.26Z"/><path class="cls-1" d="M443.27,162.64c70.47,0,127.8,57.33,127.8,127.8h50c0-98.04-79.76-177.8-177.8-177.8s-177.8,79.76-177.8,177.8,79.75,177.79,177.78,177.8h0c70.47,0,127.8,57.34,127.8,127.81s-57.33,127.8-127.8,127.8-127.8-57.33-127.8-127.8h-50c0,98.04,79.76,177.8,177.8,177.8s177.8-79.76,177.8-177.8c0-1.88-.04-3.74-.1-5.61-.08-2.7-.22-5.39-.42-8.05-.03-.43-.08-.85-.11-1.28-.09-1.07-.18-2.15-.29-3.21,0-.06-.01-.12-.02-.18-8.59-83.49-75.19-150.04-158.7-158.54-.21-.02-.42-.04-.63-.06-1.28-.13-2.57-.25-3.86-.34-.27-.02-.54-.03-.82-.05-1.23-.09-2.47-.17-3.71-.24-.48-.02-.96-.03-1.44-.05-1.04-.04-2.07-.09-3.11-.12-.74-.02-1.48-.02-2.21-.03-.79-.01-1.57-.03-2.36-.03h0c-70.47,0-127.8-57.34-127.8-127.81s57.33-127.8,127.8-127.8Z"/></svg>
