<svg xmlns="http://www.w3.org/2000/svg" xmlns:xlink="http://www.w3.org/1999/xlink" x="0px" y="0px" viewBox="0 0 886.5 886.5" style="enable-background:new 0 0 886.5 886.5;" xml:space="preserve"><path class="st0" d="M851.7,270.7c-22.3-52.8-54.3-100.2-95-140.9c-40.7-40.7-88.1-72.6-140.9-95C561.1,11.7,503.1,0,443.3,0S325.4,11.7,270.7,34.9c-52.8,22.3-100.2,54.3-140.9,95s-72.6,88.1-95,140.9C11.7,325.4,0,383.4,0,443.3s11.7,117.9,34.9,172.6c22.3,52.8,54.3,100.2,95,140.9c40.7,40.7,88.1,72.6,140.9,95c54.7,23.1,112.7,34.9,172.6,34.9s117.9-11.7,172.6-34.9c52.8-22.3,100.2-54.3,140.9-95c40.7-40.7,72.6-88.1,95-140.9c23.1-54.7,34.9-112.7,34.9-172.6S874.8,325.4,851.7,270.7z M564,493.3h218.9c-8.4,57.4-31,110.1-64.2,154.7L564,493.3z M167.9,647.9c-33.2-44.5-55.8-97.3-64.2-154.7h218.9L167.9,647.9z M322.6,393.3H103.7c8.4-57.4,31-110.2,64.2-154.7L322.6,393.3z M563.9,393.3l154.7-154.7c33.2,44.5,55.8,97.3,64.2,154.7H563.9z M443.3,100c76.6,0,147.5,25.3,204.7,67.9L443.3,372.5L238.6,167.9C295.8,125.3,366.6,100,443.3,100z M443.3,786.5c-76.6,0-147.5-25.3-204.7-67.9l204.7-204.7L648,718.6C590.8,761.3,519.9,786.5,443.3,786.5z"/></svg>
